<?xml version="1.0" standalone="no"?>
<!DOCTYPE svg PUBLIC "-//W3C//DTD SVG 20010904//EN"
 "http://www.w3.org/TR/2001/REC-SVG-20010904/DTD/svg10.dtd">
<svg version="1.0" xmlns="http://www.w3.org/2000/svg"
 width="2000.000000pt" height="1258.000000pt" viewBox="0 0 2000.000000 1258.000000"
 preserveAspectRatio="xMidYMid meet">

<g transform="translate(0.000000,1258.000000) scale(0.100000,-0.100000)"
fill="#000000" stroke="none">
<path d="M9440 12429 c-1054 -45 -2080 -364 -2975 -924 -406 -254 -746 -525
-1090 -870 -802 -801 -1349 -1768 -1624 -2870 -62 -250 -111 -538 -148 -875
-22 -207 -26 -928 -5 -1130 87 -847 278 -1515 637 -2225 316 -627 693 -1140
1201 -1635 462 -450 949 -796 1534 -1091 689 -346 1431 -557 2200 -624 1167
-102 2319 122 3348 651 1449 744 2537 2020 3041 3566 400 1226 399 2583 -3
3803 -267 807 -680 1528 -1243 2165 -121 136 -419 433 -551 548 -407 355 -854
652 -1347 893 -928 455 -1925 662 -2975 618z m880 -133 c763 -85 1426 -277
2070 -597 454 -227 814 -461 1200 -783 167 -139 486 -448 636 -617 740 -833
1240 -1864 1429 -2949 132 -765 121 -1529 -36 -2290 -370 -1791 -1575 -3347
-3224 -4160 -501 -247 -949 -400 -1490 -510 -1076 -217 -2217 -132 -3248 244
-431 157 -921 405 -1279 646 -576 389 -1078 863 -1478 1395 -383 511 -681
1071 -895 1685 -121 349 -233 848 -279 1255 -44 380 -47 940 -7 1311 129 1195
599 2308 1361 3224 813 976 1928 1681 3140 1985 382 96 652 141 1055 175 167
14 878 5 1045 -14z"/>
<path d="M9670 11863 c0 -17 10 -22 53 -29 l52 -9 -2 -204 c-1 -205 -18 -432
-34 -462 -4 -9 -22 -22 -39 -29 -55 -23 -38 -40 39 -40 38 0 171 -7 294 -16
123 -8 246 -14 273 -12 l49 3 6 55 c3 30 9 72 13 93 7 36 6 37 -23 37 -27 0
-30 -4 -36 -41 -12 -70 -29 -79 -147 -78 -57 1 -128 4 -158 7 -52 7 -55 9 -58
37 -2 17 -1 85 3 153 l7 122 92 0 c121 0 163 -12 171 -49 3 -15 5 -34 3 -42
-2 -9 7 -15 25 -17 27 -3 27 -3 27 55 0 32 3 88 7 126 6 67 6 67 -19 67 -26 0
-38 -16 -38 -50 0 -10 -5 -22 -12 -26 -13 -9 -190 -6 -227 3 l-24 6 7 116 c9
167 6 161 80 161 62 -1 196 -15 228 -26 14 -4 18 -16 18 -50 0 -43 1 -45 27
-42 25 3 28 8 40 82 7 43 11 81 8 84 -7 8 -198 19 -477 28 -224 7 -228 7 -228
-13z"/>
<path d="M9125 11859 c-238 -32 -396 -123 -467 -267 -30 -61 -33 -75 -33 -157
1 -117 26 -184 100 -264 63 -67 147 -113 243 -132 79 -15 275 -7 356 15 103
28 186 74 201 109 7 18 11 35 9 39 -2 4 -32 -6 -67 -22 -138 -65 -310 -81
-419 -40 -223 83 -302 394 -142 554 101 101 319 139 435 75 39 -22 45 -30 53
-72 8 -40 13 -47 33 -47 22 0 23 3 23 69 0 38 3 82 6 98 6 28 4 30 -33 37 -71
12 -227 15 -298 5z"/>
<path d="M10707 11804 c-17 -17 -4 -35 41 -56 44 -21 47 -25 45 -58 -3 -47
-103 -404 -145 -516 l-33 -89 -57 2 c-43 2 -57 -1 -62 -13 -9 -24 0 -32 44
-39 21 -4 89 -21 149 -39 106 -32 111 -32 117 -14 7 23 9 21 -41 40 -39 16
-40 17 -39 65 0 42 42 211 105 427 11 38 24 65 29 60 4 -5 54 -94 110 -199 56
-104 148 -270 204 -369 96 -169 103 -179 150 -203 49 -25 76 -25 76 0 0 19
122 461 159 578 17 53 37 101 44 107 9 7 26 8 56 1 49 -11 46 -12 55 17 6 18
0 22 -50 33 -31 7 -97 26 -147 41 -50 16 -94 27 -99 24 -22 -14 -6 -41 31 -52
59 -18 64 -30 47 -104 -22 -97 -95 -355 -109 -391 l-14 -32 -28 45 c-39 62
-230 410 -301 550 -46 88 -65 116 -84 121 -14 4 -68 19 -120 34 -52 15 -102
29 -110 32 -9 2 -19 1 -23 -3z"/>
<path d="M7910 11583 c-8 -3 -91 -37 -185 -76 -93 -39 -226 -92 -295 -118 -68
-26 -125 -51 -127 -55 -1 -5 1 -15 6 -23 8 -12 16 -12 55 -1 36 10 49 10 60 1
29 -24 237 -543 240 -596 1 -25 -5 -33 -34 -47 -19 -10 -39 -19 -44 -21 -5 -2
-4 -13 3 -25 l11 -21 73 32 c39 18 132 55 205 82 72 27 132 52 132 55 0 3 -4
11 -9 19 -8 12 -16 13 -49 3 -68 -21 -79 -17 -106 37 -44 86 -97 223 -92 236
5 14 165 75 197 75 12 0 25 -13 36 -35 16 -34 35 -43 61 -26 10 6 4 31 -28
112 -23 57 -45 107 -48 111 -4 4 -17 5 -29 2 -20 -5 -22 -12 -20 -52 l2 -47
-90 -37 c-49 -20 -97 -37 -105 -37 -13 -1 -62 111 -108 246 -4 13 57 43 162
79 98 34 118 32 139 -11 17 -35 31 -42 55 -26 11 6 9 23 -10 86 -24 79 -31 88
-58 78z"/>
<path d="M11910 11344 c-22 -48 -39 -88 -38 -89 2 -1 12 -7 24 -13 18 -10 25
-6 53 34 37 54 35 54 168 -18 l93 -49 -57 -107 c-31 -59 -94 -177 -139 -262
-45 -85 -93 -168 -107 -185 l-25 -30 -46 23 c-56 27 -53 26 -66 3 -9 -17 4
-27 133 -94 78 -42 166 -88 195 -104 45 -24 54 -26 62 -13 14 22 14 23 -30 50
-22 13 -42 31 -46 40 -6 15 80 190 223 452 l75 138 31 -16 c32 -16 150 -85
175 -102 11 -7 9 -19 -7 -61 l-20 -52 26 -12 c21 -9 28 -9 35 3 5 8 26 44 47
80 l38 64 -310 163 c-171 90 -325 172 -344 183 -18 11 -49 29 -68 41 l-35 20
-40 -87z"/>
<path d="M6852 11066 c-74 -19 -186 -76 -263 -134 -130 -99 -206 -210 -229
-335 -29 -157 77 -355 229 -426 49 -23 69 -26 156 -26 85 0 109 4 163 27 106
44 173 89 264 178 67 66 95 102 120 155 30 65 33 78 33 170 0 92 -3 106 -32
168 -40 83 -119 169 -188 203 -65 31 -174 40 -253 20z m86 -147 c78 -38 150
-117 199 -216 68 -138 53 -254 -44 -344 -104 -96 -226 -119 -337 -64 -76 38
-165 135 -213 232 -64 129 -48 229 50 324 104 102 229 127 345 68z"/>
<path d="M12890 10875 c-11 -13 -7 -22 25 -55 l38 -39 -18 -28 c-70 -109 -391
-493 -412 -493 -9 0 -32 12 -50 26 -32 24 -36 25 -51 10 -10 -10 -13 -19 -7
-25 8 -7 201 -164 290 -235 20 -16 27 -17 40 -6 14 12 12 17 -20 50 -19 20
-35 41 -35 48 0 13 193 257 329 415 l92 108 28 -20 c59 -42 110 -101 120 -139
26 -96 -48 -182 -157 -182 -40 0 -59 7 -101 35 -28 20 -51 34 -51 33 0 -2 -3
-79 -6 -173 -3 -93 -8 -210 -12 -259 l-8 -88 61 -46 c33 -26 77 -62 99 -82 36
-33 39 -33 52 -16 11 16 11 22 -6 44 -19 23 -20 41 -20 253 0 126 3 229 6 229
3 0 31 -7 62 -16 171 -50 310 72 249 219 -16 37 -100 117 -212 202 -44 33
-130 101 -191 152 -62 51 -114 93 -117 93 -2 0 -10 -7 -17 -15z"/>
<path d="M9515 10789 c-612 -25 -1195 -174 -1760 -449 -419 -204 -800 -472
-1137 -798 -395 -383 -682 -779 -919 -1267 -231 -478 -370 -965 -423 -1485
-34 -329 -30 -686 10 -1010 40 -319 159 -817 270 -1125 87 -241 220 -516 329
-680 230 -345 682 -840 997 -1092 628 -503 1642 -909 2491 -999 188 -20 620
-14 797 10 561 78 1142 262 1665 527 220 111 332 176 465 267 251 173 600 486
803 721 487 564 850 1330 1011 2131 132 657 84 1439 -130 2130 -122 393 -351
859 -589 1200 -669 958 -1676 1619 -2800 1840 -262 51 -479 73 -825 83 -47 2
-161 0 -255 -4z m705 -114 c173 -22 361 -61 517 -106 151 -44 332 -111 315
-117 -12 -4 -255 19 -457 44 -451 54 -905 -46 -1270 -280 -247 -158 -528 -437
-697 -691 -141 -214 -285 -571 -359 -892 -30 -131 -38 -526 -15 -713 63 -499
179 -778 451 -1091 44 -50 186 -193 315 -317 323 -310 732 -716 848 -842 53
-58 137 -148 186 -200 216 -231 439 -570 560 -850 140 -327 193 -589 166 -830
-35 -318 -157 -634 -337 -875 -65 -86 -222 -259 -230 -252 -2 2 33 73 79 158
150 283 189 395 207 602 30 341 -84 669 -320 921 -199 213 -551 474 -999 741
-211 125 -345 213 -549 358 -90 64 -168 117 -174 117 -16 0 -179 124 -337 256
-167 140 -388 363 -507 512 -302 377 -524 851 -603 1292 -15 80 -15 430 0 594
53 594 199 1059 429 1363 321 427 719 745 1149 919 208 84 634 171 967 198
112 9 545 -3 665 -19z m-2339 -433 c-21 -30 -53 -60 -205 -192 -136 -118 -239
-238 -361 -420 -249 -372 -382 -691 -461 -1100 -37 -196 -47 -317 -41 -505 16
-428 133 -868 349 -1299 137 -275 296 -487 577 -766 190 -189 427 -395 483
-418 16 -7 75 -47 131 -89 134 -102 391 -282 480 -336 40 -25 173 -105 297
-178 536 -318 853 -571 1018 -812 64 -93 135 -239 156 -324 19 -74 37 -247 31
-300 -2 -21 -7 -72 -10 -114 -13 -169 -88 -398 -180 -544 -39 -63 -142 -181
-150 -173 -2 2 8 44 22 93 23 84 24 101 19 265 -4 174 -17 262 -57 409 -53
196 -180 352 -391 482 -322 200 -405 237 -1028 454 -597 208 -677 238 -800
294 -232 106 -476 256 -676 417 -106 85 -340 298 -346 314 -2 5 -50 58 -108
117 -234 240 -441 563 -554 866 -124 330 -178 650 -178 1042 0 305 30 547 103
825 51 195 211 503 393 759 318 449 872 924 1411 1212 50 27 91 49 93 49 2 0
-6 -13 -17 -28z m2151 -340 c62 -158 183 -270 363 -338 15 -5 6 -9 -35 -16
-30 -4 -93 -26 -139 -49 -116 -57 -186 -130 -250 -260 l-48 -98 -13 42 c-53
177 -203 355 -340 404 l-47 17 76 31 c166 67 264 159 339 317 l47 100 13 -48
c7 -27 23 -73 34 -102z m1948 -1922 c23 -250 64 -682 91 -959 l49 -504 -52
-56 c-161 -173 -329 -270 -469 -271 l-57 0 -7 38 c-4 20 -26 97 -51 170 -127
389 -311 624 -501 640 -43 4 -60 0 -97 -22 -122 -71 -186 -238 -186 -484 0
-282 75 -510 214 -647 105 -104 258 -165 416 -165 66 0 90 5 175 40 339 138
679 421 938 783 l55 77 226 -237 c124 -130 226 -243 226 -252 0 -9 -18 -137
-40 -286 -38 -250 -98 -684 -171 -1220 -16 -121 -45 -350 -64 -510 l-35 -289
-42 -44 c-91 -92 -226 -165 -381 -203 -102 -25 -337 -38 -337 -19 0 6 51 137
114 289 62 152 121 297 131 323 l17 47 42 -21 c51 -26 123 -29 158 -6 41 27
77 112 88 208 11 92 19 1411 9 1404 -3 -2 -12 -25 -19 -51 -30 -112 -264 -699
-397 -998 -205 -461 -365 -729 -703 -1180 -184 -245 -313 -398 -434 -512 -86
-82 -377 -316 -384 -309 -2 2 34 62 79 132 244 383 320 626 336 1084 7 205 1
260 -48 430 -87 305 -270 667 -472 935 -33 44 -230 251 -436 460 -207 209
-466 477 -576 595 -225 242 -495 548 -495 560 0 15 199 305 292 425 51 66 160
188 243 271 326 327 640 508 1035 597 81 18 128 21 320 22 196 0 240 -3 338
-23 151 -30 304 -81 429 -142 57 -28 106 -50 109 -51 4 0 19 28 33 63 33 76
81 153 169 271 54 71 68 85 74 70 3 -10 25 -223 48 -473z m-6211 -90 c-64
-405 -55 -703 31 -1131 54 -265 147 -555 234 -727 82 -164 264 -437 326 -492
15 -14 60 -62 99 -108 221 -260 452 -480 623 -594 393 -262 849 -460 1469
-638 325 -94 499 -161 739 -286 175 -92 282 -165 375 -259 181 -181 238 -344
239 -675 1 -147 -1 -172 -22 -232 -30 -86 -85 -170 -154 -234 -47 -45 -105
-84 -123 -84 -3 0 15 37 39 83 73 134 71 194 -11 366 -79 164 -223 282 -431
351 -51 17 -127 35 -170 41 -42 5 -187 23 -322 40 -800 97 -1307 215 -1749
408 -414 180 -776 491 -1057 906 -230 339 -378 707 -451 1120 -25 141 -25 711
1 965 43 433 108 753 218 1075 33 98 119 307 124 302 2 -2 -10 -90 -27 -197z
m186 -3567 c270 -322 508 -525 834 -712 249 -142 694 -297 1079 -376 238 -48
346 -61 887 -110 301 -27 436 -45 504 -70 119 -42 255 -204 268 -318 6 -50
-18 -147 -54 -223 -48 -101 -195 -204 -361 -253 -249 -74 -626 -79 -818 -11
-284 100 -602 256 -904 444 -205 127 -265 172 -435 321 -513 452 -847 836
-990 1137 -48 103 -109 269 -97 267 4 0 43 -43 87 -96z"/>
<path d="M5658 10166 c-16 -19 -28 -41 -28 -48 0 -8 18 -68 40 -133 45 -132
93 -296 88 -300 -2 -1 -50 4 -108 11 -58 8 -152 15 -210 16 -149 3 -162 -4
-225 -126 -39 -75 -47 -98 -38 -107 10 -10 18 -8 37 10 13 12 41 27 63 32 49
11 317 11 406 0 66 -9 72 -12 164 -88 53 -43 98 -83 100 -89 2 -6 -8 -28 -22
-49 -27 -38 -27 -65 -1 -65 8 0 38 32 68 72 29 40 86 113 126 162 39 49 72 92
72 96 0 4 -6 13 -13 19 -10 8 -21 2 -47 -24 -19 -19 -41 -35 -49 -35 -21 0
-167 99 -213 144 -41 40 -48 61 -109 311 -22 88 -43 173 -47 189 -10 41 -23
41 -54 2z"/>
<path d="M13765 9724 c-165 -35 -344 -71 -398 -80 l-99 -16 -31 30 c-29 27
-34 29 -51 17 -18 -13 -16 -17 31 -72 27 -32 69 -86 93 -120 23 -35 46 -63 50
-63 4 0 13 7 20 15 9 11 8 20 -8 42 -37 52 -33 66 25 85 29 10 70 20 91 24
l38 6 104 -136 103 -137 -28 -58 c-15 -33 -38 -72 -51 -88 l-24 -28 -35 40
c-32 38 -35 39 -51 23 -17 -16 -15 -21 31 -80 70 -89 167 -219 185 -246 13
-20 17 -21 34 -9 17 13 17 15 2 45 -9 17 -16 39 -16 49 0 10 79 179 175 376
96 197 175 363 175 368 0 13 -50 79 -59 78 -3 -1 -141 -30 -306 -65z m75 -198
c-40 -75 -73 -136 -75 -136 -7 0 -154 198 -157 211 -2 8 45 22 147 43 83 17
151 28 153 25 2 -4 -29 -68 -68 -143z"/>
<path d="M5040 9361 c0 -9 -321 -571 -373 -654 -18 -29 -36 -57 -40 -64 -5 -8
18 -25 72 -53 44 -22 85 -40 90 -40 5 0 13 10 16 21 6 17 -2 29 -36 59 l-43
37 59 106 c33 59 62 107 65 107 3 0 129 -71 280 -158 301 -173 301 -173 265
-242 -9 -18 -14 -38 -11 -46 12 -32 37 -9 87 84 29 53 76 136 106 184 29 47
53 89 53 92 0 3 -8 10 -18 15 -16 8 -24 3 -50 -34 -17 -25 -38 -45 -45 -45
-16 0 -534 294 -556 315 -12 12 -5 28 46 112 37 60 68 99 79 101 11 1 36 -6
57 -17 l38 -19 16 25 c19 28 23 23 -64 74 -29 17 -55 34 -58 40 -8 11 -35 12
-35 0z"/>
<path d="M14500 9130 c-12 -8 -12 -14 3 -45 9 -20 17 -44 17 -55 0 -25 -40
-48 -346 -202 l-241 -121 -31 21 c-26 19 -62 29 -62 18 0 -2 18 -36 40 -75 22
-38 87 -166 144 -284 58 -117 111 -219 118 -225 11 -8 35 -4 103 18 48 17 90
32 93 34 2 2 -2 14 -8 26 -10 19 -17 21 -53 16 -23 -4 -52 -9 -64 -12 -18 -5
-28 4 -59 53 -42 64 -128 233 -122 238 2 2 109 59 238 126 234 122 332 169
350 169 5 0 20 -18 32 -40 23 -41 33 -46 56 -32 9 6 -12 56 -84 195 -52 103
-99 187 -102 187 -4 0 -14 -4 -22 -10z"/>
<path d="M4546 8408 c-2 -7 -32 -89 -66 -183 -69 -187 -73 -208 -48 -213 12
-2 22 7 31 30 26 63 33 64 164 20 199 -67 477 -173 493 -188 12 -12 12 -21 2
-61 -10 -37 -10 -48 0 -54 7 -5 17 -7 21 -6 5 1 33 68 62 147 29 80 62 168 73
197 l21 52 -20 6 c-24 8 -21 11 -48 -42 -12 -24 -28 -43 -35 -43 -34 0 -595
205 -615 225 -12 11 -12 21 -1 60 11 40 11 48 -1 56 -19 12 -29 11 -33 -3z"/>
<path d="M15038 7893 c-1 -5 -2 -30 -2 -58 l-1 -50 -50 -17 c-80 -26 -494
-119 -557 -125 l-57 -6 -12 47 c-9 39 -15 46 -35 46 -28 0 -28 1 -9 -70 9 -30
29 -116 45 -190 17 -74 32 -145 35 -157 4 -15 10 -20 24 -16 18 5 19 11 14 68
l-6 63 49 16 c66 21 257 67 262 62 8 -9 44 -207 39 -221 -3 -7 -24 -19 -46
-25 -46 -12 -44 -10 -32 -43 l9 -24 117 26 c112 25 116 27 113 51 -3 22 -9 25
-45 28 -41 3 -43 5 -57 51 -24 82 -38 163 -29 171 13 14 256 61 265 52 14 -14
48 -166 51 -226 l2 -59 -42 -14 c-42 -14 -50 -26 -35 -50 6 -10 25 -11 83 -3
41 5 77 10 82 10 14 0 6 47 -52 294 -33 138 -65 279 -72 314 -9 50 -15 62 -30
62 -11 0 -20 -3 -21 -7z"/>
<path d="M4328 7698 c-29 -45 -67 -155 -83 -243 -34 -178 9 -310 117 -366 118
-60 230 -17 288 113 84 189 120 258 144 273 51 34 134 14 172 -42 15 -22 19
-46 19 -108 0 -71 -4 -89 -33 -147 -18 -36 -47 -79 -66 -96 -30 -26 -37 -28
-85 -22 -48 6 -52 5 -57 -17 -8 -31 -7 -32 62 -50 32 -8 71 -21 86 -29 25 -13
28 -12 47 12 95 120 144 389 96 524 -51 142 -201 218 -315 160 -53 -27 -81
-72 -137 -215 -67 -174 -91 -204 -160 -205 -81 0 -131 73 -120 176 6 62 45
153 80 188 21 21 29 23 70 16 44 -6 48 -5 53 17 8 31 7 31 -73 59 -85 29 -87
29 -105 2z"/>
<path d="M15228 7023 c-14 -4 -18 -15 -18 -58 0 -42 -4 -55 -17 -59 -22 -7
-344 -33 -519 -42 l-132 -7 -23 36 c-34 52 -53 49 -46 -5 4 -24 11 -126 17
-228 15 -263 28 -393 41 -400 6 -4 43 -8 82 -9 40 -1 80 -4 90 -7 13 -4 17 1
17 25 0 31 -4 34 -71 45 -21 4 -42 12 -47 19 -14 16 -30 113 -38 228 l-7 97
49 6 c118 14 485 37 549 34 l70 -3 9 -47 c8 -42 13 -48 34 -48 23 0 24 2 18
53 -9 70 -25 293 -26 340 0 20 -3 36 -7 36 -5 -1 -16 -3 -25 -6z"/>
<path d="M4877 6811 c-5 -22 -30 -50 -94 -103 -128 -106 -263 -211 -268 -207
-2 2 -18 33 -37 69 -25 49 -45 73 -83 98 -45 31 -55 34 -108 30 -49 -4 -62 -9
-92 -38 -58 -56 -60 -71 -58 -420 2 -304 2 -315 21 -318 17 -3 21 5 27 48 5
34 13 54 25 60 24 13 610 13 644 0 21 -8 25 -16 28 -57 3 -40 6 -48 23 -48 19
0 20 7 22 208 l2 207 -24 0 c-23 0 -25 -4 -25 -45 0 -34 -5 -47 -19 -55 -21
-11 -608 -14 -648 -4 -21 6 -23 12 -23 68 0 84 14 126 54 165 46 45 103 51
166 19 62 -32 90 -77 90 -144 0 -29 4 -55 9 -58 4 -3 27 12 50 33 23 22 116
92 206 156 l163 117 1 124 c0 123 0 124 -23 124 -18 0 -25 -7 -29 -29z"/>
<path d="M14698 6037 c-137 -58 -215 -172 -252 -367 -53 -275 29 -495 218
-584 71 -34 164 -50 239 -42 171 18 291 152 338 378 59 290 -22 515 -219 606
-47 21 -75 26 -162 29 -93 3 -111 1 -162 -20z m270 -198 c166 -35 246 -157
221 -333 -22 -157 -121 -244 -290 -254 -148 -9 -298 45 -359 129 -58 81 -62
207 -10 318 64 134 224 185 438 140z"/>
<path d="M4835 5778 c-43 -5 -80 -10 -82 -11 -1 -2 0 -13 4 -25 4 -18 13 -22
44 -22 75 0 85 -9 108 -107 24 -106 46 -232 40 -238 -5 -4 -278 -55 -297 -55
-13 0 -45 174 -40 220 3 30 8 37 38 46 27 9 35 17 35 35 0 28 6 27 -143 3 -94
-16 -103 -19 -100 -38 2 -17 11 -22 46 -24 33 -2 45 -8 52 -25 16 -40 43 -218
34 -227 -10 -9 -195 -40 -241 -40 -30 0 -31 1 -47 88 -10 48 -18 116 -19 152
l-2 65 43 13 c23 8 42 19 42 25 -1 28 -17 33 -97 29 l-83 -4 0 -34 c0 -31 117
-654 124 -662 2 -1 11 0 20 4 12 4 16 19 16 54 0 26 6 52 13 58 20 16 424 91
580 107 l68 7 29 -33 c41 -49 46 -23 21 103 -11 57 -34 189 -51 293 -33 207
-45 256 -63 254 -7 -1 -48 -6 -92 -11z"/>
<path d="M14332 4977 c-5 -6 -24 -57 -42 -112 -18 -55 -48 -138 -66 -184 -19
-47 -33 -86 -31 -87 1 -1 11 -4 22 -7 16 -5 24 2 40 36 11 23 28 43 37 45 20
4 243 -73 466 -160 175 -68 171 -63 119 -168 -20 -42 -44 -73 -66 -87 -62 -41
-147 -23 -196 41 -35 45 -42 101 -21 162 9 26 14 49 12 51 -2 3 -42 -9 -87
-25 -97 -34 -370 -112 -394 -112 -9 0 -17 -6 -20 -12 -2 -7 -22 -62 -44 -122
-23 -60 -41 -111 -41 -112 0 -1 9 -4 20 -7 13 -3 24 1 30 14 6 10 25 26 43 35
25 14 399 144 411 144 2 0 6 -29 9 -65 7 -76 33 -130 81 -173 47 -41 94 -49
151 -27 79 30 115 91 186 318 23 71 61 179 85 240 32 83 40 113 31 119 -23 15
-33 8 -55 -37 -12 -25 -28 -45 -35 -45 -30 0 -516 174 -589 211 -43 22 -43 22
-23 78 13 38 13 42 -4 51 -13 7 -22 6 -29 -3z"/>
<path d="M4368 4733 c-10 -3 -18 -10 -17 -16 1 -24 105 -281 114 -284 6 -1 16
1 23 6 11 7 11 17 -3 56 -11 35 -13 51 -5 59 7 7 50 10 118 8 129 -4 453 -30
461 -37 9 -9 -388 -415 -406 -415 -7 0 -22 19 -34 43 -27 53 -24 51 -48 38
-19 -11 -19 -14 28 -129 26 -64 61 -154 77 -199 21 -60 33 -83 46 -83 25 0 31
16 18 56 -11 32 -9 39 13 72 26 38 196 226 414 458 l123 131 -17 46 -17 46
-60 5 c-34 3 -198 17 -366 32 -406 35 -390 31 -435 96 -5 8 -18 13 -27 11z"/>
<path d="M13925 4009 c-24 -46 -138 -242 -172 -296 -13 -19 -12 -23 6 -32 18
-10 24 -6 47 29 15 22 34 40 42 40 29 0 547 -295 573 -326 10 -12 8 -24 -10
-61 -18 -37 -20 -48 -9 -54 16 -11 38 -11 38 -1 0 11 115 217 162 290 34 52
39 65 27 73 -24 15 -33 10 -57 -27 -21 -32 -27 -35 -55 -30 -34 7 -156 73
-382 207 -208 124 -194 110 -167 164 27 55 27 52 2 65 -17 9 -22 5 -45 -41z"/>
<path d="M5490 3990 c-12 -8 -12 -14 3 -45 29 -60 24 -71 -55 -122 -160 -104
-473 -283 -494 -283 -15 0 -30 12 -44 35 -22 36 -47 45 -56 21 -3 -8 21 -56
54 -108 32 -51 80 -130 106 -175 43 -74 50 -82 67 -72 11 6 19 13 17 17 -2 4
-12 24 -23 45 l-19 38 25 24 c26 26 372 239 486 300 l68 36 36 -41 c25 -29 40
-39 52 -34 9 3 17 8 17 11 0 3 -35 62 -78 131 -43 70 -91 151 -107 180 -30 55
-32 57 -55 42z"/>
<path d="M13630 3503 c-25 -31 -88 -104 -140 -163 -125 -139 -151 -173 -193
-250 -77 -141 -89 -307 -30 -430 37 -80 107 -151 190 -192 56 -27 69 -30 140
-27 145 7 223 64 443 324 70 83 160 186 199 229 64 70 70 81 57 94 -13 13 -19
11 -54 -17 -22 -17 -45 -31 -51 -31 -13 0 -149 112 -349 288 l-153 135 3 45
c2 25 -1 46 -7 48 -5 2 -30 -22 -55 -53z m-21 -230 c105 -86 441 -384 441
-392 0 -38 -173 -214 -243 -247 -111 -51 -237 -20 -343 84 -73 72 -106 140
-112 229 -4 69 -2 78 32 147 30 63 154 216 173 216 3 0 27 -17 52 -37z"/>
<path d="M5790 3394 c-239 -211 -479 -404 -501 -404 -4 0 -22 15 -40 34 -30
31 -36 33 -52 21 -18 -13 -14 -20 60 -107 43 -51 88 -106 100 -123 20 -28 23
-29 38 -14 16 16 15 19 -9 55 -14 21 -26 46 -26 55 0 15 157 157 328 298 l52
43 0 -69 c0 -88 -14 -253 -45 -527 l-25 -218 53 -57 c28 -32 68 -78 87 -104
36 -48 48 -55 67 -36 8 8 3 23 -18 56 -21 34 -26 50 -19 63 8 15 78 77 275
245 96 82 197 155 223 162 18 4 32 -2 58 -28 32 -31 35 -32 50 -17 15 15 13
20 -33 70 -27 29 -74 82 -103 118 -29 36 -58 64 -64 62 -26 -8 -27 -22 -2 -55
14 -18 26 -42 26 -51 0 -10 -24 -40 -52 -67 -86 -80 -349 -302 -354 -297 -2 3
5 90 16 194 10 104 26 277 35 384 8 107 17 213 19 235 2 30 -4 53 -26 93 -16
28 -33 52 -36 52 -4 0 -41 -30 -82 -66z"/>
<path d="M12885 2692 c-33 -26 -85 -65 -115 -87 -30 -21 -57 -40 -59 -42 -3
-2 2 -11 11 -20 15 -15 19 -14 53 6 54 32 63 28 80 -36 9 -32 20 -71 25 -86
11 -33 16 -28 -155 -156 l-120 -90 -65 36 c-36 19 -73 43 -83 53 -18 17 -17
18 20 53 35 34 37 38 21 53 -15 15 -23 10 -116 -62 -54 -44 -130 -101 -167
-127 -63 -45 -66 -50 -51 -65 16 -16 19 -16 47 1 17 9 38 17 46 17 9 0 180
-81 381 -180 l365 -180 36 27 c20 14 37 27 38 28 2 1 -26 141 -62 311 -35 170
-71 351 -80 403 l-16 94 32 33 c27 28 30 36 19 49 -7 8 -15 15 -19 15 -3 0
-33 -22 -66 -48z m50 -533 c17 -82 27 -149 23 -149 -17 0 -278 135 -276 142 5
13 212 167 218 161 3 -2 19 -72 35 -154z"/>
<path d="M6593 2495 c-44 -19 -104 -83 -186 -200 -76 -108 -175 -232 -201
-254 -15 -12 -22 -12 -53 3 -32 15 -38 16 -51 2 -9 -9 -14 -17 -11 -19 2 -2
33 -23 69 -47 36 -24 91 -63 123 -88 55 -42 59 -43 72 -26 12 17 9 23 -26 55
-21 20 -39 41 -39 47 0 17 212 330 261 385 51 59 85 77 142 77 85 0 235 -98
277 -181 11 -21 20 -58 20 -84 0 -41 -10 -59 -96 -188 -106 -155 -170 -242
-202 -271 -21 -18 -22 -18 -63 3 -38 20 -44 21 -57 7 -9 -9 -14 -17 -11 -19 2
-2 40 -28 84 -57 44 -30 120 -83 168 -118 83 -61 90 -64 105 -48 16 16 15 19
-21 49 -20 18 -37 39 -37 48 0 14 44 82 239 364 88 128 98 183 49 279 -48 93
-214 230 -333 275 -65 25 -173 28 -222 6z"/>
<path d="M7896 1754 c-104 -91 -243 -141 -358 -128 l-61 7 65 -64 c101 -100
144 -210 131 -335 l-6 -59 52 48 c103 91 229 134 365 123 l79 -7 -44 48 c-99
106 -146 197 -155 297 -3 36 -9 76 -12 89 -7 25 -7 25 -56 -19z"/>
<path d="M11552 1758 c-5 -7 -15 -49 -21 -93 -16 -110 -66 -211 -126 -256 -24
-19 -45 -36 -45 -39 0 -3 26 -7 57 -8 125 -5 251 -62 338 -153 31 -33 58 -59
59 -59 2 0 6 51 8 113 6 129 31 216 83 288 l32 46 -75 17 c-81 19 -179 63
-202 92 -13 15 -84 64 -94 64 -2 0 -8 -6 -14 -12z"/>
<path d="M10689 1634 c-50 -15 -132 -81 -153 -123 -21 -40 -35 -100 -26 -106
5 -3 20 16 34 42 41 81 104 123 186 123 90 0 140 -47 140 -132 0 -54 -36 -101
-121 -159 -32 -22 -59 -41 -59 -43 0 -2 42 -1 93 1 83 4 96 2 136 -19 156 -84
94 -317 -83 -318 -28 0 -75 5 -106 12 -67 14 -106 6 -116 -24 -10 -31 27 -58
80 -58 117 1 258 61 330 141 129 144 81 320 -102 369 l-43 11 36 40 c59 66 70
117 36 179 -38 72 -150 99 -262 64z"/>
<path d="M8597 1605 c-59 -12 -110 -25 -114 -29 -3 -3 21 -6 55 -6 49 0 63 -4
71 -18 11 -22 -107 -594 -128 -615 -7 -7 -35 -11 -67 -11 -29 1 -54 -2 -54 -7
0 -5 3 -9 8 -9 4 0 81 -16 171 -35 91 -20 170 -34 175 -31 6 2 2 7 -9 11 -53
18 -86 36 -92 51 -4 12 123 649 142 712 6 17 -30 14 -158 -13z"/>
<path d="M10262 1569 c-183 -31 -351 -147 -423 -295 -32 -65 -34 -74 -34 -179
0 -100 3 -115 27 -160 32 -62 103 -129 166 -158 63 -29 169 -29 232 0 98 45
163 142 163 247 0 105 -51 185 -140 223 -54 22 -169 16 -237 -12 -33 -13 -62
-22 -64 -20 -3 2 11 37 30 77 62 131 159 215 291 253 31 9 57 21 57 26 0 5 -3
8 -7 8 -5 -1 -32 -5 -61 -10z m-92 -381 c113 -57 146 -274 56 -364 -58 -58
-157 -54 -215 7 -79 84 -114 267 -63 329 41 50 152 63 222 28z"/>
<path d="M9250 1541 c-71 -22 -148 -90 -175 -155 -59 -141 6 -293 143 -332 68
-20 162 -14 227 15 25 11 45 16 45 12 0 -16 -74 -129 -108 -164 -70 -72 -168
-120 -279 -135 -68 -10 -54 -28 20 -24 196 10 350 94 447 244 133 205 62 472
-142 533 -54 16 -136 19 -178 6z m178 -49 c16 -12 41 -43 54 -70 19 -40 23
-62 23 -147 0 -139 -4 -150 -66 -170 -61 -21 -145 -16 -184 9 -45 30 -70 99
-69 192 1 95 27 161 77 194 42 27 120 23 165 -8z"/>
</g>
</svg>
