<?xml version="1.0" standalone="no"?>
<!DOCTYPE svg PUBLIC "-//W3C//DTD SVG 20010904//EN"
 "http://www.w3.org/TR/2001/REC-SVG-20010904/DTD/svg10.dtd">
<svg version="1.0" xmlns="http://www.w3.org/2000/svg"
 width="400.000000pt" height="400.000000pt" viewBox="0 0 400.000000 400.000000"
 preserveAspectRatio="xMidYMid meet">

<g transform="translate(0.000000,400.000000) scale(0.100000,-0.100000)"
fill="#000000" stroke="none">
<path d="M2146 3721 c-13 -14 -26 -18 -55 -14 -54 7 -110 -13 -117 -42 -7 -27
14 -71 50 -104 14 -14 26 -28 26 -32 0 -5 -39 -40 -86 -80 l-85 -71 7 -42 c8
-49 31 -98 73 -150 35 -44 38 -73 19 -186 -11 -62 -10 -77 4 -118 15 -42 16
-52 3 -87 -13 -38 -15 -40 -51 -37 -24 2 -46 13 -65 31 -30 30 -80 46 -171 56
-32 4 -60 10 -63 15 -3 5 2 32 11 60 20 61 12 162 -16 205 -29 45 -126 77
-174 59 -9 -3 -36 -35 -61 -70 -35 -49 -45 -71 -43 -97 1 -18 -2 -39 -6 -46
-5 -7 -21 -49 -37 -94 -21 -59 -26 -84 -18 -94 8 -9 8 -26 0 -60 -6 -27 -11
-66 -10 -88 1 -22 -1 -55 -6 -72 -11 -48 10 -42 36 9 12 23 34 54 49 68 26 24
50 97 50 151 0 11 9 37 20 57 11 20 26 54 34 75 8 20 20 37 26 37 14 0 50 -84
50 -115 0 -16 -17 -40 -52 -72 -63 -59 -111 -156 -111 -223 1 -25 10 -67 22
-93 12 -27 21 -56 21 -66 0 -9 -30 -42 -66 -72 -70 -57 -99 -99 -89 -128 3
-11 40 -33 93 -56 48 -20 88 -39 90 -40 2 -2 -4 -17 -12 -34 -9 -16 -16 -36
-16 -44 0 -8 32 -49 71 -92 39 -42 79 -96 89 -120 10 -24 23 -45 28 -49 5 -3
7 -16 5 -29 -5 -25 29 -90 59 -115 23 -19 40 8 40 62 0 77 -12 108 -84 212
-74 109 -83 145 -27 117 33 -16 33 -17 19 -43 -8 -15 -2 -25 31 -55 29 -26 44
-34 52 -26 20 20 1 180 -21 181 -4 1 -20 11 -36 24 l-29 24 54 86 c60 95 78
104 109 54 19 -31 19 -34 2 -45 -51 -36 -54 -52 -17 -89 14 -14 25 -32 25 -40
0 -15 25 -70 42 -91 19 -24 38 -2 38 43 0 51 13 56 35 14 8 -16 31 -44 50 -63
31 -30 33 -36 20 -47 -22 -18 -19 -64 10 -161 42 -138 67 -348 46 -388 -9 -15
-9 -37 0 -86 12 -62 14 -66 54 -85 52 -25 58 -25 52 3 -35 138 -50 467 -27
586 5 30 10 55 10 57 0 2 23 15 50 29 37 19 52 22 55 13 3 -7 4 -89 2 -183
l-2 -169 -42 -29 c-27 -18 -43 -36 -43 -49 0 -16 4 -19 20 -14 11 3 29 9 40
12 33 10 13 -23 -21 -35 -35 -12 -37 -30 -6 -59 31 -30 43 -28 150 17 51 21
107 41 126 45 18 3 49 19 67 36 20 17 64 38 104 51 39 11 70 25 70 30 0 5 -16
19 -35 31 -19 13 -35 26 -35 30 0 16 23 18 45 4 31 -20 35 -20 35 3 0 11 -18
36 -39 56 -65 62 -63 105 3 60 73 -50 76 -20 7 56 -49 53 -50 54 -31 74 16 15
22 17 32 7 7 -7 16 -12 20 -12 37 0 -51 96 -96 104 -18 4 -41 15 -51 26 -22
24 -4 27 30 4 60 -39 7 61 -54 103 -22 16 -40 31 -41 36 0 11 28 9 35 -3 3 -5
10 -10 16 -10 17 0 9 21 -16 44 -14 13 -25 33 -25 45 0 12 -11 33 -25 47 -14
14 -25 32 -25 40 0 29 -25 144 -31 144 -4 0 -10 -20 -13 -45 -9 -59 -22 -64
-43 -18 -9 21 -28 50 -41 65 -24 27 -23 48 4 48 8 0 14 6 14 13 0 28 17 40 39
28 19 -11 21 -9 21 17 0 41 -22 66 -52 60 -24 -4 -26 -2 -32 46 -3 28 -6 114
-6 191 -1 96 -5 153 -15 180 -20 56 -19 90 3 92 59 3 79 9 99 26 12 11 28 17
36 14 8 -3 26 7 41 22 22 23 26 34 20 57 -9 39 -54 100 -82 113 -68 32 -172
-11 -172 -71 0 -37 -14 -36 -30 2 -13 31 -40 41 -40 15 0 -8 -7 -15 -15 -15
-9 0 -27 -8 -42 -17 -25 -17 -26 -17 -53 15 -15 18 -33 44 -40 57 -12 23 -11
28 11 51 13 14 50 39 81 55 47 24 62 27 83 19 64 -24 165 1 182 46 11 28 -24
82 -67 104 -37 19 -40 24 -40 61 0 29 -5 41 -17 45 -10 3 -26 10 -35 15 -26
14 -43 11 -62 -10z m60 -975 c1 -53 7 -95 16 -114 17 -33 8 -52 -24 -52 -21 0
-20 -5 -23 95 -2 74 10 155 24 155 3 0 6 -38 7 -84z m-676 -490 c0 -3 -10 -21
-21 -41 -20 -33 -23 -35 -42 -22 -32 21 -30 31 11 49 40 17 52 21 52 14z m935
-56 c3 -5 1 -10 -4 -10 -6 0 -11 5 -11 10 0 6 2 10 4 10 3 0 8 -4 11 -10z
m-128 -431 l32 -58 -46 -70 c-26 -39 -51 -71 -56 -71 -6 0 -8 29 -3 77 3 42 6
110 7 152 0 74 0 75 17 52 9 -13 31 -50 49 -82z"/>
<path d="M710 1081 c5 -11 10 -67 10 -126 0 -113 11 -150 52 -179 28 -20 114
-20 148 -1 32 19 44 19 36 0 -4 -11 2 -15 25 -15 26 0 29 2 19 19 -15 28 -13
294 2 309 9 9 5 12 -17 12 l-30 0 3 -144 c3 -144 3 -145 -21 -161 -62 -40
-139 -28 -173 28 -16 27 -19 51 -19 155 0 120 0 122 -23 122 -19 0 -21 -3 -12
-19z"/>
<path d="M1925 1053 c-19 -4 -20 -10 -17 -140 2 -104 0 -138 -10 -144 -7 -5
21 -9 68 -9 69 0 83 3 89 18 5 14 4 15 -6 5 -7 -7 -37 -13 -66 -13 l-54 0 3
68 3 67 43 -1 c24 0 42 4 42 10 0 7 -17 10 -45 8 l-45 -4 0 61 0 61 46 0 c27
0 43 4 39 10 -6 10 -50 11 -90 3z"/>
<path d="M2115 908 l0 -148 25 0 c19 0 21 3 12 12 -7 7 -12 38 -12 70 0 55 1
58 25 58 17 0 32 -12 54 -44 35 -51 86 -96 108 -96 9 0 3 9 -15 25 -17 14 -44
47 -62 75 l-32 50 21 26 c49 62 7 127 -78 122 l-46 -3 0 -147z m96 124 c47
-39 13 -128 -45 -120 -18 3 -21 11 -24 57 -2 29 -1 60 2 67 8 20 40 17 67 -4z"/>
<path d="M2407 1040 c-46 -37 -38 -73 33 -141 72 -69 77 -99 23 -128 -24 -12
-73 0 -73 19 0 5 -4 10 -9 10 -5 0 -7 -9 -4 -19 10 -37 100 -32 129 7 26 33
16 69 -28 112 -23 22 -46 40 -50 40 -4 0 -14 14 -23 30 -28 54 20 98 71 65 26
-17 46 -13 28 5 -22 22 -69 22 -97 0z"/>
<path d="M2605 1052 c-19 -7 -20 -16 -20 -150 0 -120 2 -142 15 -142 13 0 15
20 12 136 -2 93 1 140 9 150 6 8 10 14 8 13 -2 -1 -13 -4 -24 -7z"/>
<path d="M1095 905 c0 -122 2 -145 15 -145 13 0 15 19 12 127 -2 70 -1 125 1
123 3 -3 50 -60 105 -128 l101 -122 3 145 c2 106 0 145 -9 145 -8 0 -11 -33
-10 -115 1 -63 -1 -114 -5 -113 -9 4 -156 186 -169 209 -5 11 -17 19 -27 19
-15 0 -17 -15 -17 -145z"/>
<path d="M1435 905 c0 -122 2 -145 15 -145 13 0 15 23 15 145 0 122 -2 145
-15 145 -13 0 -15 -23 -15 -145z"/>
<path d="M1553 1038 c22 -53 120 -264 126 -270 3 -4 39 58 79 137 59 119 69
145 54 145 -10 0 -18 -8 -19 -17 -1 -10 -25 -67 -54 -128 l-52 -110 -38 80
c-21 44 -46 101 -55 128 -10 26 -24 47 -32 47 -8 0 -12 -6 -9 -12z"/>
<path d="M2690 1043 c0 -5 23 -6 51 -4 l50 3 -3 -141 c-3 -135 -2 -141 17
-141 19 0 20 6 17 141 l-3 142 55 -5 c30 -3 53 -1 50 4 -6 10 -234 11 -234 1z"/>
<path d="M3006 1006 c14 -24 42 -87 63 -140 l38 -95 -18 -31 c-10 -16 -24 -30
-31 -30 -6 0 -9 -3 -6 -6 19 -19 55 30 120 164 39 81 78 155 86 165 14 15 13
17 -6 17 -12 0 -22 -5 -22 -10 0 -16 -102 -230 -110 -230 -9 0 -90 200 -90
223 0 11 -8 17 -24 17 l-25 0 25 -44z"/>
<path d="M1119 637 c12 -12 53 -89 92 -172 39 -82 72 -151 74 -153 1 -2 18 25
38 59 l35 63 32 -63 c17 -35 33 -61 34 -60 2 2 43 76 91 164 48 88 92 166 97
173 8 9 3 12 -22 12 -25 0 -30 -3 -23 -12 7 -9 -10 -51 -59 -143 -39 -72 -72
-132 -75 -135 -6 -6 -20 17 -39 66 l-16 41 51 86 c28 47 56 88 63 90 7 3 -3 6
-24 6 -30 1 -35 -2 -32 -17 5 -17 -54 -131 -68 -132 -10 0 -68 115 -68 135 0
10 -10 15 -32 15 -29 0 -30 -1 -15 -17 8 -10 32 -55 53 -101 l37 -83 -22 -46
c-12 -26 -26 -42 -31 -37 -4 5 -34 67 -66 139 -32 72 -58 130 -58 131 -1 1
-16 4 -35 8 l-33 6 21 -23z"/>
<path d="M3137 606 c-75 -27 -101 -71 -95 -158 3 -47 10 -64 33 -88 38 -40 82
-53 150 -45 l55 7 0 38 c0 21 3 45 6 54 4 11 0 16 -12 16 -17 0 -19 -7 -16
-50 l4 -50 -52 0 c-68 0 -107 22 -131 73 -35 78 -18 152 43 183 41 21 126 14
145 -11 7 -10 16 -16 19 -12 12 12 -16 36 -49 42 -18 4 -39 8 -47 10 -8 2 -32
-2 -53 -9z"/>
<path d="M1655 586 c22 -34 105 -237 105 -258 0 -9 -12 -31 -27 -50 l-28 -33
25 15 c16 10 51 67 100 166 41 83 81 158 89 167 12 15 11 17 -8 17 -11 0 -21
-4 -21 -10 0 -13 -104 -239 -110 -240 -7 0 -93 216 -93 235 0 9 -9 15 -24 15
-23 0 -23 -1 -8 -24z"/>
<path d="M1992 590 c-75 -46 -90 -158 -30 -226 48 -54 115 -63 187 -24 56 29
79 135 46 201 -35 66 -135 90 -203 49z m148 -18 c86 -87 44 -242 -65 -242 -72
0 -125 61 -125 145 0 75 47 125 118 125 35 0 49 -6 72 -28z"/>
<path d="M2273 597 c17 -12 17 -18 -3 -120 -12 -60 -25 -119 -30 -133 -8 -21
-7 -24 11 -24 12 0 17 4 14 11 -8 12 25 199 35 199 3 0 29 -48 57 -107 l50
-108 27 58 c14 31 38 83 52 115 l26 57 14 -50 c8 -27 15 -78 17 -112 2 -55 4
-62 24 -66 18 -3 20 -1 14 12 -13 24 -44 248 -38 266 4 10 0 15 -12 15 -13 0
-21 -10 -25 -32 -4 -18 -26 -73 -50 -123 l-44 -90 -52 110 c-29 61 -53 116
-53 123 0 6 -12 12 -26 12 -22 0 -23 -1 -8 -13z"/>
<path d="M2645 463 c0 -141 1 -148 20 -148 19 0 20 7 20 147 0 141 -1 148 -20
148 -19 0 -20 -7 -20 -147z"/>
<path d="M2755 465 c0 -133 1 -145 18 -145 10 0 15 5 12 11 -8 12 -12 239 -5
238 3 0 41 -45 85 -100 44 -54 90 -111 102 -126 l22 -27 3 147 c3 136 2 147
-15 147 -14 0 -16 -4 -7 -19 12 -24 14 -211 1 -211 -9 0 -145 165 -172 208 -8
12 -21 22 -29 22 -13 0 -15 -22 -15 -145z"/>
<path d="M822 485 c54 -30 65 -99 23 -140 -13 -14 -20 -25 -15 -25 17 0 49 38
56 65 6 26 -10 78 -30 93 -6 5 -22 13 -36 16 -24 7 -24 6 2 -9z"/>
<path d="M925 410 c0 -53 4 -90 10 -90 6 0 9 33 8 84 l-3 85 28 4 c23 3 22 4
-8 6 l-35 1 0 -90z"/>
<path d="M731 464 c-36 -46 -22 -112 28 -139 17 -8 36 -15 43 -15 7 1 -1 7
-19 15 -17 7 -36 22 -42 34 -18 33 -13 83 11 108 12 13 17 23 10 23 -6 0 -20
-12 -31 -26z"/>
<path d="M975 410 c3 -5 8 -10 11 -10 2 0 4 5 4 10 0 6 -5 10 -11 10 -5 0 -7
-4 -4 -10z"/>
</g>
</svg>
